<svg width="106" height="24" viewBox="0 0 106 24" fill="white" xmlns="http://www.w3.org/2000/svg">
<path d="M21.3688 0.62713V2.86631C21.3688 3.23198 21.0978 3.49148 20.716 3.49148H18.3775C17.9976 3.49148 17.7246 3.23198 17.7246 2.86631V0.62713C17.7246 0.263434 17.9956 0.00196184 18.3775 0.00196184H20.716C21.0978 0.00196184 21.3688 0.263434 21.3688 0.62713ZM75.1954 6.45806C69.923 6.45806 65.8989 10.2051 65.8989 15.1514C65.8989 20.1999 69.923 24 75.1954 24C80.4678 24 84.492 20.1999 84.492 15.1514C84.492 10.2071 80.4678 6.45806 75.1954 6.45806ZM75.1954 21.0334C71.8242 21.0334 69.3235 18.4816 69.3235 15.1514C69.3235 11.8702 71.8242 9.42464 75.1954 9.42464C78.5667 9.42464 81.0674 11.8702 81.0674 15.1514C81.0653 18.4836 78.5646 21.0334 75.1954 21.0334ZM63.891 15.1514C63.891 20.1999 59.9223 24 54.5945 24C52.2026 24 50.1371 22.9069 48.7225 21.4482V22.9581C48.7225 23.3218 48.3961 23.6343 48.0163 23.6343H46.113C45.7332 23.6343 45.4068 23.3218 45.4068 22.9581V0.625162C45.4068 0.261467 45.6778 0 46.0042 0H48.1251C48.4515 0 48.7225 0.261467 48.7225 0.625162V8.85059C50.1351 7.44495 52.256 6.45806 54.5945 6.45806C59.9223 6.45806 63.891 10.2071 63.891 15.1514ZM60.5198 15.1514C60.5198 11.8702 57.9636 9.42464 54.5945 9.42464C51.2232 9.42464 48.7225 11.8702 48.7225 15.1514C48.7225 18.4836 51.2232 21.0334 54.5945 21.0334C57.9657 21.0334 60.5198 18.4836 60.5198 15.1514ZM43.0683 15.1514C43.0683 20.1999 39.0462 24 33.7184 24C31.3265 24 29.261 22.9069 27.9019 21.4482V22.9581C27.9019 23.3218 27.5754 23.6343 27.1956 23.6343H25.239C24.8571 23.6343 24.5327 23.3218 24.5327 22.9581V0.625162C24.5327 0.261467 24.8037 0 25.1856 0H27.251C27.6309 0 27.9039 0.261467 27.9039 0.625162V8.85059C29.3185 7.44495 31.4373 6.45806 33.7204 6.45806C39.0462 6.45806 43.0683 10.2071 43.0683 15.1514ZM39.6437 15.1514C39.6437 11.8702 37.143 9.42464 33.7184 9.42464C30.4026 9.42464 27.9019 11.8702 27.9019 15.1514C27.9019 18.4836 30.4026 21.0334 33.7184 21.0334C37.143 21.0334 39.6437 18.4836 39.6437 15.1514ZM20.6154 6.82175H18.4945C18.168 6.82175 17.897 7.08322 17.897 7.44692V23.0111C17.897 23.3768 18.168 23.6363 18.4945 23.6363H20.6154C20.9418 23.6363 21.2128 23.3768 21.2128 23.0111V7.44692C21.2128 7.08322 20.9418 6.82175 20.6154 6.82175ZM105.206 12.6861C105.206 12.171 104.945 11.6894 104.508 11.3906L97.8845 6.86894C96.7347 6.08454 95.1867 6.08257 94.0349 6.865L90.0374 9.57798V7.4194C90.0374 7.09109 89.7582 6.82372 89.4153 6.82372H87.3376C86.9947 6.82372 86.7155 7.09109 86.7155 7.4194V23.0406C86.7155 23.3689 86.9947 23.6363 87.3376 23.6363H89.4153C89.7582 23.6363 90.0374 23.3689 90.0374 23.0406V13.4803L95.9545 9.46199L101.88 13.5059V14.1645H101.878V23.0406C101.878 23.3689 102.157 23.6363 102.5 23.6363H104.578C104.921 23.6363 105.2 23.3689 105.2 23.0406V17.9391H105.204V12.6861H105.206ZM11.21 6.86697C10.0562 6.0806 8.50401 6.07667 7.34606 6.86304L3.33426 9.58584V7.41743C3.33426 7.08715 3.05504 6.81979 2.71011 6.81979H0.624143C0.27922 6.81979 0 7.08715 0 7.41743V23.0367C0 23.367 0.27922 23.6343 0.624143 23.6343H2.71011C3.05504 23.6343 3.33426 23.367 3.33426 23.0367V13.502L9.27393 9.46789L13.3453 12.2477C13.6265 12.4404 14.0166 12.3775 14.2158 12.1081L15.4271 10.4803C15.6283 10.211 15.5626 9.83748 15.2814 9.64679L11.21 6.86697Z" fill="#373A3C"/>
</svg>
